<?xml version="1.0" encoding="UTF-8"?>
<!DOCTYPE svg PUBLIC "-//W3C//DTD SVG 1.1//EN" "http://www.w3.org/Graphics/SVG/1.1/DTD/svg11.dtd">
<svg xmlns="http://www.w3.org/2000/svg" version="1.1" width="210px" height="630px" style="shape-rendering:geometricPrecision; text-rendering:geometricPrecision; image-rendering:optimizeQuality; fill-rule:evenodd; clip-rule:evenodd" xmlns:xlink="http://www.w3.org/1999/xlink">
<g><path style="opacity:0.905" fill="#fefffe" d="M 29.5,15.5 C 39.7814,14.448 44.4481,19.1146 43.5,29.5C 44.9305,29.4208 46.2638,29.7542 47.5,30.5C 48.8333,37.5 48.8333,44.5 47.5,51.5C 38.5482,52.6386 29.5482,52.8052 20.5,52C 20,51.5 19.5,51 19,50.5C 18.3333,44.1667 18.3333,37.8333 19,31.5C 20.049,29.8934 21.549,29.2267 23.5,29.5C 22.8116,23.5558 24.8116,18.8891 29.5,15.5 Z M 31.5,19.5 C 37.4425,19.9983 40.1092,23.3317 39.5,29.5C 35.5,29.5 31.5,29.5 27.5,29.5C 27.11,25.3092 28.4433,21.9758 31.5,19.5 Z"/></g>
<g><path style="opacity:0.862" fill="#fefffe" d="M 30.5,81.5 C 41.5488,85.3553 46.7155,93.022 46,104.5C 44.0798,110.106 40.2465,112.939 34.5,113C 39.6385,107.674 39.8052,102.174 35,96.5C 28.9926,101.366 28.1592,106.866 32.5,113C 23.8815,112.041 20.0481,107.208 21,98.5C 23.0917,95.319 25.425,92.319 28,89.5C 29.7068,87.0912 30.5402,84.4245 30.5,81.5 Z"/></g>
<g><path style="opacity:0.88" fill="#fefffe" d="M 173.5,82.5 C 176.356,88.3407 180.689,92.8407 186.5,96C 184.167,96.3333 181.833,96.6667 179.5,97C 182.468,100.147 185.802,102.814 189.5,105C 187.167,105.333 184.833,105.667 182.5,106C 185.635,109.401 189.302,112.067 193.5,114C 180.167,114.667 166.833,114.667 153.5,114C 157.844,111.829 161.844,109.163 165.5,106C 163.167,105.667 160.833,105.333 158.5,105C 161.833,102.333 165.167,99.6667 168.5,97C 166.167,96.6667 163.833,96.3333 161.5,96C 166.736,92.5978 170.736,88.0978 173.5,82.5 Z"/></g>
<g><path style="opacity:0.852" fill="#fefffe" d="M 100.5,83.5 C 106.02,82.6839 109.353,85.0172 110.5,90.5C 110.471,92.0293 109.804,93.196 108.5,94C 111.833,94.3333 115.167,94.6667 118.5,95C 119.337,96.0113 119.67,97.1779 119.5,98.5C 115.5,98.5 111.5,98.5 107.5,98.5C 107.17,104.868 107.504,111.202 108.5,117.5C 112.022,115.573 115.689,113.907 119.5,112.5C 121.197,112.899 122.863,113.399 124.5,114C 110.5,130.667 96.5,130.667 82.5,114C 84.2784,113.296 86.1118,112.796 88,112.5C 91.8701,114.86 96.0368,116.527 100.5,117.5C 100.5,111.167 100.5,104.833 100.5,98.5C 96.1667,98.5 91.8333,98.5 87.5,98.5C 87.33,97.1779 87.6634,96.0113 88.5,95C 91.8333,94.6667 95.1667,94.3333 98.5,94C 96.807,90.0054 97.4737,86.5054 100.5,83.5 Z M 102.5,87.5 C 105.956,88.5362 106.29,90.2029 103.5,92.5C 101.296,91.218 100.962,89.5514 102.5,87.5 Z"/></g>
<g><path style="opacity:0.905" fill="#fefffe" d="M 21.5,117.5 C 29.5069,117.334 37.5069,117.5 45.5,118C 46.4438,120.719 46.7771,123.552 46.5,126.5C 37.8333,126.5 29.1667,126.5 20.5,126.5C 20.2641,123.391 20.5975,120.391 21.5,117.5 Z"/></g>
<g><path style="opacity:0.846" fill="#fefffe" d="M 170.5,118.5 C 172.5,118.5 174.5,118.5 176.5,118.5C 176.5,120.833 176.5,123.167 176.5,125.5C 174.5,125.5 172.5,125.5 170.5,125.5C 170.5,123.167 170.5,120.833 170.5,118.5 Z"/></g>
<g><path style="opacity:0.808" fill="#fefffe" d="M 184.5,154.5 C 193.509,160.312 196.009,168.312 192,178.5C 189.584,173.625 186.25,169.625 182,166.5C 179.979,166.673 178.146,167.34 176.5,168.5C 180,176.167 183.5,183.833 187,191.5C 187.667,195.167 186.333,196.167 183,194.5C 180.122,187.364 176.955,180.364 173.5,173.5C 170.338,180.491 167.171,187.491 164,194.5C 161.875,195.851 160.708,195.185 160.5,192.5C 163.544,184.533 166.877,176.699 170.5,169C 165.498,169.389 160.498,170.222 155.5,171.5C 152.919,169.674 152.919,167.841 155.5,166C 164.019,164.86 172.353,163.194 180.5,161C 178.963,159.89 178.297,158.39 178.5,156.5C 180.786,156.405 182.786,155.738 184.5,154.5 Z"/></g>
<g><path style="opacity:0.632" fill="#fefffe" d="M 16.5,157.5 C 19.9656,158.109 20.9656,159.942 19.5,163C 14.7217,163.073 13.7217,161.24 16.5,157.5 Z"/></g>
<g><path style="opacity:0.684" fill="#fefffe" d="M 48.5,157.5 C 52.2668,159.326 52.4335,161.326 49,163.5C 45.9113,161.796 45.7446,159.796 48.5,157.5 Z"/></g>
<g><path style="opacity:0.745" fill="#fefffe" d="M 90.5,158.5 C 93.6084,161.328 96.275,164.662 98.5,168.5C 93.8333,169.833 89.1667,169.833 84.5,168.5C 86.5113,165.139 88.5113,161.806 90.5,158.5 Z"/></g>
<g><path style="opacity:0.837" fill="#fefffe" d="M 96.5,159.5 C 100.981,158.352 105.648,158.185 110.5,159C 108.208,162.416 106.041,165.916 104,169.5C 101.252,166.266 98.7519,162.932 96.5,159.5 Z"/></g>
<g><path style="opacity:0.727" fill="#fefffe" d="M 114.5,158.5 C 115.496,158.414 116.329,158.748 117,159.5C 118.796,162.927 120.963,166.094 123.5,169C 118.467,169.829 113.467,169.662 108.5,168.5C 110.952,165.394 112.952,162.061 114.5,158.5 Z"/></g>
<g><path style="opacity:0.809" fill="#fefffe" d="M 32.5,159.5 C 33.7498,159.577 34.5831,160.244 35,161.5C 35.6333,165.209 36.7999,168.709 38.5,172C 53.0071,174.487 53.0071,176.987 38.5,179.5C 36.5704,182.872 35.4037,186.539 35,190.5C 34,191.833 33,191.833 32,190.5C 31.3333,187.167 30.6667,183.833 30,180.5C 26.3588,178.835 22.5254,177.668 18.5,177C 18.0426,176.586 17.7093,176.086 17.5,175.5C 21.8063,174.055 25.9729,172.388 30,170.5C 30.9003,166.829 31.7337,163.163 32.5,159.5 Z"/></g>
<g><path style="opacity:0.633" fill="#fefffe" d="M 23.5,163.5 C 28.5053,165.163 28.6719,167.163 24,169.5C 20.897,167.888 20.7304,165.888 23.5,163.5 Z"/></g>
<g><path style="opacity:0.654" fill="#fefffe" d="M 41.5,163.5 C 43.4841,163.484 44.4841,164.484 44.5,166.5C 44.5658,168.266 43.7324,169.266 42,169.5C 38.9113,167.796 38.7446,165.796 41.5,163.5 Z"/></g>
<g><path style="opacity:0.885" fill="#fefffe" d="M 84.5,172.5 C 97.5043,172.333 110.504,172.5 123.5,173C 116.991,181.005 110.325,188.839 103.5,196.5C 96.3883,189.062 90.0549,181.062 84.5,172.5 Z"/></g>
<g><path style="opacity:0.69" fill="#fefffe" d="M 22.5,181.5 C 26.0229,181.188 27.3563,182.521 26.5,185.5C 22.1403,187.14 20.8069,185.807 22.5,181.5 Z"/></g>
<g><path style="opacity:0.709" fill="#fefffe" d="M 40.5,181.5 C 41.8333,181.5 43.1667,181.5 44.5,181.5C 44.5,183.167 44.5,184.833 44.5,186.5C 40.065,187.078 38.7317,185.411 40.5,181.5 Z"/></g>
<g><path style="opacity:0.69" fill="#fefffe" d="M 15.5,187.5 C 19.1378,186.737 20.6378,188.07 20,191.5C 15.757,192.981 14.257,191.647 15.5,187.5 Z"/></g>
<g><path style="opacity:0.705" fill="#fefffe" d="M 47.5,187.5 C 50.9103,187.384 52.2436,189.05 51.5,192.5C 49.8333,192.5 48.1667,192.5 46.5,192.5C 46.366,190.708 46.6993,189.042 47.5,187.5 Z"/></g>
<g><path style="opacity:0.668" fill="#fefffe" d="M 41.5,220.5 C 43.6648,220.116 45.3315,220.783 46.5,222.5C 46.047,224.565 45.047,226.232 43.5,227.5C 42.914,227.291 42.414,226.957 42,226.5C 41.5045,224.527 41.3379,222.527 41.5,220.5 Z"/></g>
<g><path style="opacity:0.846" fill="#fefffe" d="M 165.5,223.5 C 170.833,223.5 176.167,223.5 181.5,223.5C 181.5,226.833 181.5,230.167 181.5,233.5C 179.833,233.5 178.167,233.5 176.5,233.5C 176.5,232.167 176.5,230.833 176.5,229.5C 174.5,229.5 172.5,229.5 170.5,229.5C 170.5,230.833 170.5,232.167 170.5,233.5C 168.833,233.5 167.167,233.5 165.5,233.5C 165.5,230.167 165.5,226.833 165.5,223.5 Z"/></g>
<g><path style="opacity:0.913" fill="#fefffe" d="M 28.5,226.5 C 31.1667,226.5 33.8333,226.5 36.5,226.5C 36.3398,228.199 36.5065,229.866 37,231.5C 38.586,232.376 40.086,233.376 41.5,234.5C 39.8136,239.095 41.4803,241.095 46.5,240.5C 45.769,245.754 48.1023,247.921 53.5,247C 48.7285,263.48 38.3952,268.48 22.5,262C 13.2434,253.192 12.0767,243.359 19,232.5C 21.8426,229.837 25.0093,227.837 28.5,226.5 Z M 32.5,239.5 C 38.0815,239.988 40.2482,242.988 39,248.5C 35.3797,252.487 31.713,252.487 28,248.5C 26.9001,244.031 28.4001,241.031 32.5,239.5 Z"/></g>
<g><path style="opacity:0.715" fill="#fefffe" d="M 49.5,226.5 C 50.1174,226.611 50.6174,226.944 51,227.5C 51.6667,229.5 51.6667,231.5 51,233.5C 46.6667,235.5 45,234.167 46,229.5C 47.1451,228.364 48.3117,227.364 49.5,226.5 Z"/></g>
<g><path style="opacity:0.899" fill="#fefffe" d="M 113.5,226.5 C 116.187,226.336 118.854,226.503 121.5,227C 122.617,230.073 122.784,233.24 122,236.5C 120,239.833 118,243.167 116,246.5C 115.667,251.5 115.333,256.5 115,261.5C 113.316,263.351 111.483,265.018 109.5,266.5C 100.5,258.167 91.8333,249.5 83.5,240.5C 84.982,238.517 86.6487,236.684 88.5,235C 92.8333,234.667 97.1667,234.333 101.5,234C 105.732,231.725 109.732,229.225 113.5,226.5 Z M 113.5,231.5 C 115.595,231.76 116.928,232.926 117.5,235C 116.305,238.56 114.471,241.726 112,244.5C 109.5,242 107,239.5 104.5,237C 107.898,235.643 110.898,233.81 113.5,231.5 Z"/></g>
<g><path style="opacity:0.913" fill="#fefffe" d="M 160.5,237.5 C 169.167,237.5 177.833,237.5 186.5,237.5C 186.998,240.829 187.998,243.995 189.5,247C 179.172,247.5 168.839,247.666 158.5,247.5C 159.167,244.167 159.833,240.833 160.5,237.5 Z"/></g>
<g><path style="opacity:0.7" fill="#fefffe" d="M 86.5,250.5 C 88.8863,251.373 90.8863,252.873 92.5,255C 82.2891,262.248 80.2891,260.748 86.5,250.5 Z"/></g>
<g><path style="opacity:0.883" fill="#fefffe" d="M 154.5,251.5 C 167.167,251.5 179.833,251.5 192.5,251.5C 192.958,255.166 193.958,258.666 195.5,262C 181.171,262.5 166.837,262.667 152.5,262.5C 153.167,258.833 153.833,255.167 154.5,251.5 Z"/></g>
<g><path style="opacity:0.716" fill="#fefffe" d="M 93.5,257.5 C 97.8169,258.554 98.8169,260.721 96.5,264C 94.1697,265.523 91.8363,266.023 89.5,265.5C 90.8466,262.807 92.1799,260.14 93.5,257.5 Z"/></g>
<g><path style="opacity:0.797" fill="#fefffe" d="M 170.5,294.5 C 172.924,294.192 175.257,294.526 177.5,295.5C 178.978,298.288 180.311,301.122 181.5,304C 174.167,304.667 166.833,304.667 159.5,304C 158.62,302.644 158.286,301.144 158.5,299.5C 161.898,299.82 165.232,299.487 168.5,298.5C 169.18,297.14 169.847,295.807 170.5,294.5 Z"/></g>
<g><path style="opacity:0.899" fill="#fefffe" d="M 27.5,295.5 C 36.083,293.793 43.2497,296.127 49,302.5C 48.3993,311.635 45.0659,319.635 39,326.5C 38.5,328.667 39.3333,329.5 41.5,329C 46.904,323.812 50.2373,317.479 51.5,310C 52.3524,308.102 53.0191,308.269 53.5,310.5C 55.8384,323.324 50.8384,331.824 38.5,336C 23.2189,337.552 14.5522,330.719 12.5,315.5C 13.746,305.932 18.746,299.266 27.5,295.5 Z M 30.5,308.5 C 40.637,308.941 42.9703,313.441 37.5,322C 29.225,324.057 25.725,320.89 27,312.5C 28.1022,311.051 29.2689,309.718 30.5,308.5 Z"/></g>
<g><path style="opacity:0.876" fill="#fefffe" d="M 101.5,296.5 C 108.279,296.589 113.945,299.089 118.5,304C 107.264,307.804 96.2636,312.304 85.5,317.5C 84.7441,305.916 90.0775,298.916 101.5,296.5 Z"/></g>
<g><path style="opacity:0.909" fill="#fefffe" d="M 119.5,307.5 C 122.247,307.187 124.914,307.52 127.5,308.5C 126.5,310.167 125.167,311.5 123.5,312.5C 121.136,331.06 111.136,337.56 93.5,332C 91.6499,329.982 89.6499,328.149 87.5,326.5C 85.0073,327.964 82.674,327.797 80.5,326C 85.1603,321.666 90.4937,318.332 96.5,316C 104.161,312.839 111.827,310.006 119.5,307.5 Z"/></g>
<g><path style="opacity:0.915" fill="#fefffe" d="M 164.5,307.5 C 173.173,307.334 181.84,307.5 190.5,308C 192.107,309.049 192.773,310.549 192.5,312.5C 190.473,312.338 188.473,312.505 186.5,313C 189.373,318.58 192.373,324.08 195.5,329.5C 181.178,330.666 166.845,330.833 152.5,330C 156.385,322.394 160.385,314.894 164.5,307.5 Z"/></g>
<g><path style="opacity:0.633" fill="#fefffe" d="M 33.5,312.5 C 37.3836,314.732 37.3836,316.732 33.5,318.5C 29.5265,316.46 29.5265,314.46 33.5,312.5 Z"/></g>
<g><path style="opacity:0.91" fill="#fefffe" d="M 20.5,361.5 C 26.8131,365.648 31.9797,370.981 36,377.5C 38.8959,375.467 42.0626,374.134 45.5,373.5C 44.8662,376.937 43.5328,380.104 41.5,383C 47.2581,386.754 52.4248,391.254 57,396.5C 57.6667,397.167 57.6667,397.833 57,398.5C 48.0974,401.449 39.4307,400.782 31,396.5C 28.3543,399.062 25.6877,401.728 23,404.5C 20.1667,401.667 17.3333,398.833 14.5,396C 17.5398,393.49 20.5398,390.99 23.5,388.5C 18.237,379.932 17.237,370.932 20.5,361.5 Z"/></g>
<g><path style="opacity:0.927" fill="#fefffe" d="M 161.5,363.5 C 166.945,367.804 169.445,373.471 169,380.5C 172.957,376.47 176.623,376.803 180,381.5C 182.01,380.152 184.01,378.818 186,377.5C 188.581,378.417 190.914,379.751 193,381.5C 193.5,388.826 193.666,396.159 193.5,403.5C 188.5,403.5 183.5,403.5 178.5,403.5C 178.665,400.482 178.498,397.482 178,394.5C 175.925,392.352 173.592,392.018 171,393.5C 170.502,396.817 170.335,400.15 170.5,403.5C 165.5,403.5 160.5,403.5 155.5,403.5C 155.333,392.828 155.5,382.161 156,371.5C 158.054,368.953 159.887,366.286 161.5,363.5 Z"/></g>
<g><path style="opacity:0.887" fill="#fefffe" d="M 109.5,366.5 C 112.766,366.433 114.266,368.099 114,371.5C 120.104,376.041 123.938,382.041 125.5,389.5C 123.61,393.785 120.61,394.619 116.5,392C 115.751,390.266 115.251,388.433 115,386.5C 114.059,388.061 112.892,389.395 111.5,390.5C 109.5,389.5 107.5,388.5 105.5,387.5C 105.167,385.5 104.833,383.5 104.5,381.5C 103.418,383.784 101.752,384.95 99.5,385C 97.7513,383.708 95.918,382.542 94,381.5C 93.7351,379.837 94.2351,378.337 95.5,377C 93.5826,377.027 91.916,377.861 90.5,379.5C 84.9229,377.834 83.5896,374.668 86.5,370C 93.2123,367.571 100.046,367.071 107,368.5C 108.301,368.361 109.134,367.695 109.5,366.5 Z"/></g>
<g><path style="opacity:0.794" fill="#fefffe" d="M 97.5,389.5 C 99.6449,389.738 101.312,390.738 102.5,392.5C 100,397.5 97.5,402.5 95,407.5C 93.414,406.624 91.914,405.624 90.5,404.5C 93.1183,399.599 95.4516,394.599 97.5,389.5 Z"/></g>
<g><path style="opacity:0.648" fill="#fefffe" d="M 23.5,431.5 C 27.9288,432.666 28.4288,434.666 25,437.5C 21.1685,436.198 20.6685,434.198 23.5,431.5 Z"/></g>
<g><path style="opacity:0.824" fill="#fefffe" d="M 90.5,434.5 C 107.025,432.697 118.692,439.363 125.5,454.5C 124.758,455.287 123.925,455.953 123,456.5C 114.303,444.511 102.47,439.511 87.5,441.5C 88.09,440.201 89.09,439.368 90.5,439C 89.1667,438.667 87.8333,438.333 86.5,438C 87.7305,436.595 89.0639,435.429 90.5,434.5 Z"/></g>
<g><path style="opacity:0.902" fill="#fefffe" d="M 172.5,434.5 C 174.074,434.937 175.241,435.937 176,437.5C 182.374,448.416 188.874,459.25 195.5,470C 181.155,470.833 166.822,470.666 152.5,469.5C 159.443,457.941 166.11,446.275 172.5,434.5 Z M 172.5,450.5 C 176.707,450.694 178.04,452.694 176.5,456.5C 173.464,458.042 171.131,457.375 169.5,454.5C 170.172,452.84 171.172,451.507 172.5,450.5 Z"/></g>
<g><path style="opacity:0.067" fill="#fefffe" d="M 12.5,439.5 C 11.8333,438.167 11.8333,438.167 12.5,439.5 Z"/></g>
<g><path style="opacity:0.85" fill="#fefffe" d="M 12.5,439.5 C 17.7234,442.698 22.8901,446.031 28,449.5C 26.9257,445.695 25.5924,442.029 24,438.5C 32.2446,444.374 40.7446,449.874 49.5,455C 53.7763,459.892 54.6096,465.392 52,471.5C 46.8333,477 41,477.833 34.5,474C 26.2715,463.036 18.9382,451.536 12.5,439.5 Z M 41.5,457.5 C 46.9275,458.684 49.0942,462.018 48,467.5C 42.5502,473.128 38.3835,472.295 35.5,465C 35.9159,461.097 37.9159,458.597 41.5,457.5 Z"/></g>
<g><path style="opacity:0.882" fill="#fefffe" d="M 91.5,448.5 C 108.454,447.045 119.288,454.378 124,470.5C 103.701,479.678 89.2005,474.011 80.5,453.5C 83.9207,451.251 87.5874,449.584 91.5,448.5 Z M 99.5,455.5 C 108.351,455.368 110.684,459.202 106.5,467C 100.837,469.274 97.1704,467.441 95.5,461.5C 95.937,458.775 97.2704,456.775 99.5,455.5 Z"/></g>
<g><path style="opacity:0.637" fill="#fefffe" d="M 16.5,458.5 C 21.8902,459.25 22.5568,461.25 18.5,464.5C 15.6095,463.163 14.9428,461.163 16.5,458.5 Z"/></g>
<g><path style="opacity:0.908" fill="#fefffe" d="M 30.5,496.5 C 37.2185,495.566 43.3851,496.9 49,500.5C 48.8478,503.49 48.3478,506.49 47.5,509.5C 48.3766,512.382 49.71,515.049 51.5,517.5C 51.3918,518.442 51.0585,519.275 50.5,520C 47.4992,519.906 45.4992,521.239 44.5,524C 46.6667,524.833 48.1667,526.333 49,528.5C 50.6591,527.183 51.8257,525.517 52.5,523.5C 53.325,522.614 54.325,522.281 55.5,522.5C 55.4208,523.93 55.7542,525.264 56.5,526.5C 51.4112,529.572 50.0778,533.905 52.5,539.5C 52.4183,545.172 49.7516,549.006 44.5,551C 34.8701,555.193 26.0368,554.026 18,547.5C 14.8548,542.124 14.6882,536.624 17.5,531C 16.9092,527.976 15.2425,525.809 12.5,524.5C 13.9828,522.344 15.9828,521.01 18.5,520.5C 18.5098,526.004 20.5098,526.837 24.5,523C 23.3759,519.578 21.2092,517.078 18,515.5C 17.9021,510.102 20.7355,507.436 26.5,507.5C 26.3354,504.482 26.502,501.482 27,498.5C 28.3024,497.915 29.469,497.249 30.5,496.5 Z M 26.5,516.5 C 27.0768,515.227 27.7435,515.227 28.5,516.5C 28.0302,517.463 27.3635,517.463 26.5,516.5 Z M 37.5,516.5 C 38.3764,516.369 39.0431,516.702 39.5,517.5C 37.1916,518.873 36.5249,518.54 37.5,516.5 Z M 26.5,528.5 C 26.8257,525.689 27.6591,523.022 29,520.5C 30.4936,519.253 31.9936,519.253 33.5,520.5C 31.8602,523.804 29.5269,526.471 26.5,528.5 Z M 28.5,532.5 C 29.3764,532.369 30.0431,532.702 30.5,533.5C 29.277,534.614 27.9437,534.781 26.5,534C 27.4158,533.722 28.0825,533.222 28.5,532.5 Z M 23.5,540.5 C 24.7082,539.218 26.0416,539.218 27.5,540.5C 26.3002,541.292 24.9669,541.292 23.5,540.5 Z M 25.5,544.5 C 26.675,544.281 27.675,544.614 28.5,545.5C 27.277,546.614 25.9437,546.781 24.5,546C 25.056,545.617 25.3893,545.117 25.5,544.5 Z"/></g>
<g><path style="opacity:0.82" fill="#fefffe" d="M 110.5,497.5 C 111.922,497.709 113.255,498.209 114.5,499C 116.207,501.505 117.873,504.005 119.5,506.5C 119.392,507.442 119.059,508.275 118.5,509C 114.25,511.374 110.084,513.874 106,516.5C 106.96,510.101 108.46,503.768 110.5,497.5 Z"/></g>
<g><path style="opacity:0.812" fill="#fefffe" d="M 93.5,499.5 C 97.6151,504.353 101.282,509.686 104.5,515.5C 104.167,515.833 103.833,516.167 103.5,516.5C 98.0188,515.175 92.8522,513.175 88,510.5C 89.2462,506.674 91.0796,503.007 93.5,499.5 Z"/></g>
<g><path style="opacity:0.807" fill="#fefffe" d="M 162.5,500.5 C 164.164,501.949 164.998,503.949 165,506.5C 166.167,507.667 167.333,508.833 168.5,510C 166.913,510.862 165.246,511.529 163.5,512C 161.93,517.32 159.93,517.653 157.5,513C 155.285,512.83 153.285,512.163 151.5,511C 153.873,508.36 155.207,505.193 155.5,501.5C 158.225,504.122 160.559,503.789 162.5,500.5 Z"/></g>
<g><path style="opacity:0.722" fill="#fefffe" d="M 179.5,501.5 C 181.205,502.535 182.872,502.535 184.5,501.5C 185.318,503.108 185.985,504.775 186.5,506.5C 185,507.5 183.5,508.5 182,509.5C 180.5,508.5 179,507.5 177.5,506.5C 178.95,505.15 179.617,503.484 179.5,501.5 Z"/></g>
<g><path style="opacity:0.744" fill="#fefffe" d="M 175.5,508.5 C 177.2,509.016 178.533,510.016 179.5,511.5C 177.682,516.125 176.182,520.792 175,525.5C 174.26,519.782 174.427,514.115 175.5,508.5 Z"/></g>
<g><path style="opacity:0.776" fill="#fefffe" d="M 195.5,509.5 C 196.391,510.261 197.058,511.261 197.5,512.5C 198.689,513.429 200.022,513.762 201.5,513.5C 200.361,516.004 199.694,518.67 199.5,521.5C 196.833,520.167 194.167,520.167 191.5,521.5C 191.33,520.178 191.663,519.011 192.5,518C 188.265,515.247 188.599,513.58 193.5,513C 194.305,511.887 194.972,510.721 195.5,509.5 Z"/></g>
<g><path style="opacity:0.765" fill="#fefffe" d="M 164.5,513.5 C 166.167,513.5 167.833,513.5 169.5,513.5C 172.591,524.635 173.757,535.968 173,547.5C 171.005,537.035 167.838,526.869 163.5,517C 163.989,515.862 164.322,514.695 164.5,513.5 Z"/></g>
<g><path style="opacity:0.909" fill="#fefffe" d="M 119.5,514.5 C 121.167,514.5 122.833,514.5 124.5,514.5C 124.543,517.867 124.21,521.201 123.5,524.5C 121.587,526.773 120.587,529.439 120.5,532.5C 115.859,533.127 111.193,533.46 106.5,533.5C 106.261,528.065 106.261,522.732 106.5,517.5C 110.977,516.595 115.311,515.595 119.5,514.5 Z"/></g>
<g><path style="opacity:0.758" fill="#fefffe" d="M 178.5,544.5 C 176.729,549.954 175.729,549.621 175.5,543.5C 175.451,532.606 179.451,523.606 187.5,516.5C 188.086,516.709 188.586,517.043 189,517.5C 189.667,519.833 189.667,522.167 189,524.5C 183.122,529.922 179.622,536.589 178.5,544.5 Z"/></g>
<g><path style="opacity:0.898" fill="#fefffe" d="M 95.5,517.5 C 98.1667,517.5 100.833,517.5 103.5,517.5C 103.5,522.833 103.5,528.167 103.5,533.5C 98.5068,533.916 93.5068,534.249 88.5,534.5C 86.3207,529.465 84.9874,524.131 84.5,518.5C 88.3714,518.815 92.0381,518.482 95.5,517.5 Z"/></g>
<g><path style="opacity:0.732" fill="#fefffe" d="M 158.5,526.5 C 160.201,527.525 161.535,529.025 162.5,531C 161.5,532.5 160.5,534 159.5,535.5C 157.929,534.691 156.262,534.357 154.5,534.5C 155.052,532.669 155.052,531.003 154.5,529.5C 156.184,528.85 157.517,527.85 158.5,526.5 Z"/></g>
<g><path style="opacity:0.669" fill="#fefffe" d="M 164.5,532.5 C 168.762,536.679 170.428,541.679 169.5,547.5C 167.167,543.5 164.833,539.5 162.5,535.5C 163.193,534.482 163.859,533.482 164.5,532.5 Z"/></g>
<g><path style="opacity:0.683" fill="#fefffe" d="M 196.5,533.5 C 197.972,535.134 199.638,536.634 201.5,538C 199.963,539.11 199.297,540.61 199.5,542.5C 197.146,542.162 194.813,541.662 192.5,541C 193.138,539.293 193.138,537.46 192.5,535.5C 194.38,535.771 195.713,535.104 196.5,533.5 Z"/></g>
<g><path style="opacity:0.902" fill="#fefffe" d="M 108.5,534.5 C 112.514,534.334 116.514,534.501 120.5,535C 119.606,539.763 118.939,544.597 118.5,549.5C 114.5,549.5 110.5,549.5 106.5,549.5C 105.974,544.193 106.64,539.193 108.5,534.5 Z"/></g>
<g><path style="opacity:0.893" fill="#fefffe" d="M 88.5,536.5 C 93.3054,535.513 98.3054,535.179 103.5,535.5C 103.5,539.833 103.5,544.167 103.5,548.5C 99.1667,548.5 94.8333,548.5 90.5,548.5C 90.4613,544.267 89.7947,540.267 88.5,536.5 Z"/></g>
<g><path style="opacity:0.687" fill="#fefffe" d="M 178.5,544.5 C 180.898,540.779 184.232,538.112 188.5,536.5C 190.49,537.463 190.823,538.796 189.5,540.5C 185.635,542.025 182.302,544.358 179.5,547.5C 178.614,546.675 178.281,545.675 178.5,544.5 Z"/></g>
<g><path style="opacity:0.89" fill="#fefffe" d="M 21.5,572.5 C 22.1174,572.611 22.6174,572.944 23,573.5C 22.1019,579.773 24.1019,584.773 29,588.5C 29.4997,596.827 29.6664,605.16 29.5,613.5C 24.5,613.5 19.5,613.5 14.5,613.5C 14.3336,605.16 14.5003,596.827 15,588.5C 19.8044,584.324 21.9711,578.991 21.5,572.5 Z"/></g>
<g><path style="opacity:0.886" fill="#fefffe" d="M 32.5,572.5 C 37.5,572.5 42.5,572.5 47.5,572.5C 47.3342,577.179 47.5008,581.845 48,586.5C 49.6667,588.167 51.3333,589.833 53,591.5C 53.4997,598.826 53.6663,606.159 53.5,613.5C 46.5,613.5 39.5,613.5 32.5,613.5C 32.5,599.833 32.5,586.167 32.5,572.5 Z M 37.5,576.5 C 39.5,576.5 41.5,576.5 43.5,576.5C 43.5,578.5 43.5,580.5 43.5,582.5C 41.5,582.5 39.5,582.5 37.5,582.5C 37.5,580.5 37.5,578.5 37.5,576.5 Z"/></g>
<g><path style="opacity:0.906" fill="#fefffe" d="M 172.5,573.5 C 177.404,584.872 181.738,596.538 185.5,608.5C 173.814,608.832 162.148,608.499 150.5,607.5C 157.844,596.138 165.177,584.805 172.5,573.5 Z"/></g>
<g><path style="opacity:0.754" fill="#fefffe" d="M 179.5,579.5 C 185.934,588.849 192.267,598.349 198.5,608C 195.446,608.821 192.446,608.655 189.5,607.5C 185.962,598.219 182.629,588.886 179.5,579.5 Z"/></g>
<g><path style="opacity:0.898" fill="#fefffe" d="M 80.5,581.5 C 81.552,581.351 82.552,581.517 83.5,582C 87.3784,586.214 91.5451,590.048 96,593.5C 106.686,590.815 117.519,589.981 128.5,591C 131.123,593.559 130.79,595.892 127.5,598C 121.723,600.888 115.723,603.221 109.5,605C 108.35,607.462 107.017,609.796 105.5,612C 101.779,612.644 98.1128,613.477 94.5,614.5C 93.9328,611.788 93.5995,609.121 93.5,606.5C 91.2534,607.374 88.9201,607.708 86.5,607.5C 87.2142,603.754 86.0475,602.754 83,604.5C 81.5962,604.491 80.4296,603.991 79.5,603C 81.1884,601.312 82.8551,599.645 84.5,598C 82.9274,592.544 81.5941,587.044 80.5,581.5 Z"/></g>
<g><path style="opacity:0.779" fill="#fefffe" d="M 102.5,581.5 C 106.256,581.876 109.256,583.543 111.5,586.5C 106.291,588.146 100.957,589.146 95.5,589.5C 96.0856,585.251 98.4189,582.584 102.5,581.5 Z"/></g>
</svg>
